<svg height="510pt" viewBox="0 -12 510.31281 510" width="510pt" xmlns="http://www.w3.org/2000/svg"><path d="m509.734375 330.078125c-.023437-.230469-.160156-.410156-.203125-.636719-.601562-7.164062-3.617188-13.914062-8.5625-19.132812-8.925781-8.925782-20.832031-3.6875-30.402344.503906-5.683594 3.003906-11.898437 4.882812-18.296875 5.527344-6.269531-.53125-12.476562-1.652344-18.535156-3.347656-27.746094-7.679688-56.804687-9.40625-85.265625-5.066407-24 3.984375-31.875-2.039062-40.226562-8.421875-9.6875-9.089844-23.453126-12.398437-36.214844-8.703125-15.476563-23.417969-49.332032-75-68.441406-106.851562-19.035157-29.695313-42.578126-56.242188-69.78125-78.6875-12.167969-19.378907-22.773438-38.144531-32.304688-57.269531-28.03125-56.058594-93.507812-47.398438-94.171875-47.296876-4.597656.730469-7.761719 5.011719-7.109375 9.621094s4.878906 7.847656 9.496094 7.273438c2.191406-.300782 54.050781-6.894532 76.519531 38.027344 9.640625 19.355468 20.367187 38.34375 32.625 57.910156-1.667969 4.890625-7.8125 17.125-30.109375 33.855468-13.984375 10.753907-31.113281 16.617188-48.753906 16.679688-3.574219-8.542969-5.5625-17.664062-5.859375-26.921875.859375-9.71875-2.683594-19.308594-9.660157-26.128906-4.835937-4.023438-11.140624-5.832031-17.375-4.984375-4.644531.792968-7.769531 5.199218-6.980468 9.847656.792968 4.644531 5.203125 7.769531 9.847656 6.976562 1.273438-.027343 2.511719.398438 3.5 1.203126 2.878906 3.714843 4.171875 8.417968 3.601562 13.085937.277344 11.191406 2.613282 22.238281 6.882813 32.589844-.261719.289062-.574219.519531-.816406.832031-3.351563 4.289062-4.445313 9.921875-2.953125 15.152344 5.976562 20.863281 21.894531 58.804687 61.335937 78.527344 6.933594 3.464843 13.867188 6.777343 20.742188 10.0625 43.222656 20.640624 80.636719 38.605468 101.800781 85.011718-5.472656 17.601563 4.546875 42.496094 8.679688 51.5625-6.265626 19.371094.917968 40.554688 17.675781 52.117188l9.425781 18.773437c2.144531 4.148438 7.230469 5.800781 11.40625 3.703125s5.890625-7.160156 3.84375-11.363281l-.222656-.433594c4.601562 1.042969 9.296875 1.597657 14.015625 1.648438 3.351562-.011719 6.699219-.273438 10.011719-.78125l3.605468 7.210937c1.332032 2.777344 4.058594 4.621094 7.132813 4.820313 3.074219.203125 6.015625-1.265625 7.699219-3.847657 1.6875-2.578124 1.851562-5.863281.433593-8.597656l-2.183593-4.371094c6.082031-2.628906 11.785156-6.066406 16.949218-10.21875 3.714844-2.972656 7.125-5.5625 10.367188-7.90625l2.265625 4.527344c1.363281 2.726563 4.078125 4.519532 7.121093 4.703125 3.046876.179688 5.957032-1.273437 7.636719-3.820312 1.679688-2.542969 1.871094-5.789063.507813-8.515625l-3.078125-6.160156c15.140625-7.644532 31.296875-13.089844 47.980469-16.171876 13.941406-3.40625 31.078124-7.605468 54.21875-14.386718l5.074218 10.199218c2.097656 4.222657 7.21875 5.941407 11.441406 3.84375 4.21875-2.097656 5.9375-7.222656 3.839844-11.441406l-3.925781-7.894531c6.605469-2.433594 12.980469-5.453125 19.046875-9.03125l3.738281 7.476563c1.363281 2.726562 4.078125 4.519531 7.121094 4.699218 3.042969.183594 5.953125-1.269531 7.632813-3.816406 1.679687-2.542969 1.875-5.792969.511718-8.519531l-5.089844-10.179688c15.863282-14.464843 23.632813-35.785156 20.789063-57.066406zm-400.117187-71.175781c-6.78125-3.242188-13.625-6.507813-20.464844-9.929688-33.609375-16.796875-47.359375-49.789062-52.625-67.855468 22.5.617187 44.535156-6.46875 62.460937-20.085938 13.351563-9.121094 24.589844-21.003906 32.949219-34.84375 22.015625 19.414062 41.207031 41.8125 57.019531 66.542969 25.40625 42.351562 76.5 119.042969 77.015625 119.808593.621094.910157 1.402344 1.699219 2.308594 2.324219 4 2.878907 6.71875 7.203125 7.582031 12.054688-.234375 6.851562-3.457031 13.257812-8.824219 17.523437-12.738281 11.855469-31.296874 15.019532-47.242187 8.058594-23.699219-52.300781-65.738281-72.371094-110.179687-93.597656zm331.667968 134.597656c-26.183594 7.851562-44.933594 12.4375-60 16.117188-34.28125 8.375-48.476562 11.839843-79.417968 36.59375-17.296876 14.8125-42.402344 16.121093-61.148438 3.183593-8.710938-5.859375-13.707031-15.859375-13.160156-26.34375 16.847656 8.203125 35.304687 12.5625 54.042968 12.757813 14.46875-.285156 28.265626-6.167969 38.484376-16.414063 12.523437-12.089843 29.460937-18.496093 46.847656-17.71875 39.445312 0 89.84375-19.699219 116.667968-33.980469-11.023437 12.859376-25.835937 21.894532-42.316406 25.804688zm47.617188-49.058594c-6.917969 6.910156-73.035156 40.164063-121.96875 40.164063-21.3125-.742188-42.050782 7.015625-57.640625 21.570312-7.207031 7.683594-17.164063 12.199219-27.691407 12.566407-18.648437-.304688-36.917968-5.292969-53.132812-14.507813-5.121094-10.621094-8.148438-22.125-8.925781-33.890625 6.3125 1.84375 12.851562 2.800781 19.425781 2.839844 15.09375.171875 29.601562-5.855469 40.132812-16.671875 9.167969-7.785157 14.234376-19.359375 13.734376-31.375-.796876-6.964844-3.796876-13.496094-8.570313-18.628907 5.125.648438 9.90625 2.949219 13.609375 6.554688 8.488281 7.234375 19.003906 11.679688 30.105469 12.722656.230469 4.125-.75 8.230469-2.8125 11.808594-2.109375 4.214844-.402344 9.34375 3.8125 11.449219 4.21875 2.109375 9.34375.402343 11.453125-3.8125 3.269531-6.054688 4.878906-12.867188 4.664062-19.742188 2.035156-.226562 3.953125-.359375 6.167969-.726562.707031-.117188 1.359375-.15625 2.0625-.265625.710937 4.53125-.195313 9.167968-2.5625 13.097656-2.105469 4.214844-.398437 9.34375 3.816406 11.449219 4.21875 2.109375 9.34375.402343 11.453125-3.8125 3.734375-6.851563 5.25-14.691407 4.34375-22.4375 2.695313-.136719 5.347656-.230469 7.921875-.230469 1.753907 5.035156 1.039063 10.605469-1.933593 15.03125-2.109376 4.214844-.398438 9.34375 3.816406 11.449219 4.214844 2.109375 9.339844.402343 11.449218-3.8125 3.617188-6.671875 5.144532-14.273438 4.390626-21.824219 11.398437 1.324219 22.695312 3.394531 33.820312 6.207031 7.316406 2.066407 14.835938 3.339844 22.425781 3.792969 8.777344-.542969 17.347657-2.914062 25.15625-6.960938 3.628907-1.855468 7.488281-3.222656 11.476563-4.066406 5.15625 6.449219 5.15625 15.613282 0 22.0625zm0 0"/><path d="m324.019531 189.078125 34.132813 20.480469c5.402344 3.25 12.160156 3.25 17.566406 0l34.140625-20.488282c5.125-3.097656 8.257813-8.644531 8.277344-14.628906v-41.535156c-.019531-5.988281-3.160157-11.535156-8.285157-14.636719l-34.132812-20.480469c-5.40625-3.25-12.164062-3.25-17.566406 0l-34.140625 20.488282c-5.121094 3.097656-8.257813 8.644531-8.277344 14.628906v41.535156c.019531 5.988282 3.160156 11.535156 8.285156 14.636719zm8.78125-56.175781 34.132813-20.480469 34.136718 20.480469v41.535156l-34.136718 20.480469-34.132813-20.480469zm0 0"/><path d="m261.988281 227.28125c23.867188 34.40625 63.078125 54.925781 104.945313 54.925781 41.871094 0 81.082031-20.519531 104.945312-54.925781.070313-.105469.183594-.160156.246094-.269531l.042969-.113281c30.527343-43.933594 30.339843-102.265626-.46875-146.003907-.035157-.066406-.035157-.140625-.070313-.203125-.121094-.203125-.324218-.3125-.457031-.503906-18.082031-25.441406-44.828125-43.40625-75.214844-50.53125-.257812-.113281-.546875-.125-.816406-.210938-18.558594-4.3125-37.855469-4.3125-56.414063 0-.265624.085938-.554687.097657-.808593.207032-30.390625 7.125-57.136719 25.09375-75.21875 50.535156-.132813.191406-.335938.300781-.457031.5-.039063.066406-.035157.140625-.070313.207031-30.808594 43.738281-30.996094 102.070313-.46875 146.003907l.039063.113281c.066406.109375.179687.164062.246093.269531zm70.8125 32.429688c-19.984375-6.496094-37.722656-18.519532-51.160156-34.675782l17.027344-10.210937 34.132812 20.480469zm68.269531 0v-24.40625l34.132813-20.476563 17.027344 10.210937c-13.4375 16.15625-31.175781 28.179688-51.160157 34.671876zm71.578126-139.0625c6.855468 21.523437 6.960937 44.625.304687 66.207031l-20.683594-12.414063-.007812-41.542968zm-71.578126-71.945313c19.683594 6.410156 37.191407 18.1875 50.546876 34.003906l-16.40625 9.820313-34.140626-20.488282zm-68.269531 0v23.34375l-34.132812 20.476563-16.414063-9.8125c13.355469-15.820313 30.863282-27.597657 50.546875-34.007813zm-60.511719 47.9375 17.613282 10.527344c5.398437 3.234375 12.144531 3.234375 17.542968-.007813l34.148438-20.492187c5.121094-3.097657 8.257812-8.640625 8.273438-14.628907v-27.3125c11.296874-1.9375 22.839843-1.9375 34.132812 0v27.3125c.019531 5.992188 3.160156 11.539063 8.285156 14.640626l34.152344 20.484374c5.394531 3.238282 12.132812 3.242188 17.53125.011719l17.613281-10.535156c1.601563 2.621094 3.09375 5.308594 4.480469 8.058594l-22.585938 13.570312c-5.125 3.097657-8.261718 8.644531-8.273437 14.632813v41.539062c.019531 5.988282 3.15625 11.535156 8.28125 14.636719l22.988281 13.789063c-1.363281 2.789062-2.839844 5.503906-4.429687 8.148437l-18.074219-10.839844c-5.40625-3.230469-12.152344-3.226562-17.550781.019531l-34.140625 20.484376c-5.121094 3.097656-8.257813 8.640624-8.277344 14.628906v28.378906c-11.292969 1.9375-22.835938 1.9375-34.132812 0v-28.378906c-.015626-5.992188-3.15625-11.539063-8.28125-14.636719l-38.527344-23.113281c-2.699219-1.625-6.078125-1.625-8.78125-.003906l-22.453125 13.457031c-1.585938-2.648438-3.0625-5.363281-4.425781-8.144531l22.992187-13.796876c5.125-3.097656 8.261719-8.644531 8.277344-14.628906v-41.539062c-.011719-5.988282-3.152344-11.53125-8.277344-14.628906l-22.589844-13.574219c1.386719-2.757813 2.882813-5.445313 4.488281-8.058594zm-11.371093 90.210937c-6.65625-21.578124-6.550781-44.683593.300781-66.203124l20.382812 12.253906v41.542968zm0 0"/></svg>