<svg height="512pt" viewBox="0 0 512 512.0991" width="512pt" xmlns="http://www.w3.org/2000/svg"><path d="m503.519531 85.433594h-85.332031c-10.601562-.039063-20.121094 6.480468-23.910156 16.378906-3.792969 9.898438-1.070313 21.109375 6.84375 28.164062v49.324219h-76.800782c-10.601562-.039062-20.121093 6.480469-23.910156 16.378907-3.792968 9.898437-1.070312 21.109374 6.84375 28.164062v49.320312h-76.800781c-10.601563-.035156-20.117187 6.484376-23.910156 16.382813s-1.070313 21.109375 6.84375 28.164063v49.320312h-85.335938c-12.453125-.023438-23.105469 8.941406-25.21875 21.214844-2.109375 12.273437 4.941407 24.277344 16.6875 28.417968v69.835938c0 14.136719 11.460938 25.597656 25.601563 25.597656h341.332031c14.136719 0 25.597656-11.460937 25.597656-25.597656v-392.535156c0-4.710938-3.820312-8.53125-8.53125-8.53125zm-179.199219 238.933594h76.800782v76.796874h-76.800782zm170.664063-17.066407h-76.796875v-76.800781h76.796875zm-76.796875 17.066407h76.796875v76.796874h-76.796875zm0-221.867188h76.796875v17.066406h-76.796875c-4.714844 0-8.535156-3.820312-8.535156-8.535156 0-4.710938 3.820312-8.53125 8.535156-8.53125zm76.796875 34.132812v76.800782h-76.796875v-76.800782zm-170.664063 59.734376h76.800782v17.066406h-76.800782c-4.714843 0-8.535156-3.820313-8.535156-8.535156 0-4.710938 3.820313-8.53125 8.535156-8.53125zm76.800782 34.132812v76.800781h-76.800782v-76.800781zm-170.667969 59.734375h76.800781v17.066406h-76.800781c-4.714844 0-8.535156-3.820312-8.535156-8.535156 0-4.710937 3.820312-8.53125 8.535156-8.53125zm76.800781 34.132813v76.796874h-76.800781v-76.796874zm-179.203125 59.730468h76.800781v17.066406h-76.800781c-4.710937 0-8.53125-3.820312-8.53125-8.53125 0-4.714843 3.820313-8.535156 8.53125-8.535156zm8.535157 102.402344v-68.265625h76.800781v76.796875h-68.265625c-4.714844 0-8.535156-3.820312-8.535156-8.53125zm93.867187-68.265625h76.800781v76.796875h-76.800781zm93.867187 0h76.800782v76.796875h-76.800782zm170.664063 68.265625c0 4.710938-3.820313 8.53125-8.53125 8.53125h-68.265625v-76.796875h76.796875zm0 0"/><path d="m266.097656 192.609375c.660156 3.972656 4 6.941406 8.019532 7.128906h.394531c3.875-.003906 7.265625-2.617187 8.25-6.367187.921875-3.507813 22.007812-86.382813-27.820313-136.210938l-24.128906-24.132812c-49.851562-49.824219-132.695312-28.746094-136.210938-27.808594-3.886718 1.027344-6.527343 4.632812-6.339843 8.648438.1875 4.015624 3.152343 7.355468 7.117187 8.015624 37.460938 6.238282 73.042969 35.117188 86.945313 47.566407l-174.769531 174.773437c-10.007813 9.996094-10.007813 26.214844 0 36.214844 10.007812 9.960938 26.1875 9.960938 36.195312 0l174.757812-174.78125c12.464844 13.910156 41.34375 49.492188 47.589844 86.953125zm-47.351562-147.515625 24.132812 24.125c23.617188 23.613281 28.355469 57.371094 27.824219 83.039062-11.816406-23.917968-27.316406-45.832031-45.933594-64.941406l-24.117187-24.070312c-19.128906-18.648438-41.074219-34.167969-65.03125-45.988282 25.890625-.621093 59.425781 4.175782 83.125 27.835938zm-187.058594 223.269531c-3.335938 3.332031-8.742188 3.328125-12.070312-.007812-3.332032-3.332031-3.332032-8.738281.003906-12.070313l174.992187-174.972656 12.066407 12.066406zm0 0"/><path d="m324.320312 136.632812v-17.066406c0-4.714844-3.820312-8.535156-8.535156-8.535156-4.710937 0-8.53125 3.820312-8.53125 8.535156v17.066406c0 4.710938 3.820313 8.53125 8.53125 8.53125 4.714844 0 8.535156-3.820312 8.535156-8.53125zm0 0"/><path d="m347.417969 159.730469 17.066406-17.066407c3.234375-3.347656 3.1875-8.667968-.101563-11.960937-3.292968-3.292969-8.613281-3.335937-11.964843-.105469l-17.066407 17.070313c-2.21875 2.140625-3.105468 5.3125-2.324218 8.296875s3.109375 5.3125 6.09375 6.09375 6.15625-.109375 8.296875-2.328125zm0 0"/><path d="m260.773438 214.328125-17.070313 8.535156c-4.214844 2.105469-5.929687 7.230469-3.820313 11.449219 2.105469 4.21875 7.234376 5.929688 11.449219 3.824219l17.066407-8.535157c4.21875-2.105468 5.929687-7.230468 3.824218-11.449218-2.105468-4.21875-7.234375-5.929688-11.449218-3.824219zm0 0"/></svg>